<?xml version="1.0" encoding="UTF-8" standalone="no"?>
<!DOCTYPE svg PUBLIC "-//W3C//DTD SVG 1.1//EN"
 "http://www.w3.org/Graphics/SVG/1.1/DTD/svg11.dtd">
<!-- Generated by graphviz version 12.2.1 (20250203.1708)
 -->
<!-- Title: snakemake_dag Pages: 1 -->
<svg width="434pt" height="353pt"
 viewBox="0.00 0.00 434.25 352.50" xmlns="http://www.w3.org/2000/svg" xmlns:xlink="http://www.w3.org/1999/xlink">
<g id="graph0" class="graph" transform="scale(1 1) rotate(0) translate(4 348.5)">
<title>snakemake_dag</title>
<polygon fill="white" stroke="none" points="-4,4 -4,-348.5 430.25,-348.5 430.25,4 -4,4"/>
<!-- 0 -->
<g id="node1" class="node">
<title>0</title>
<path fill="none" stroke="#56d88a" stroke-width="2" d="M228.12,-36C228.12,-36 197.12,-36 197.12,-36 191.12,-36 185.12,-30 185.12,-24 185.12,-24 185.12,-12 185.12,-12 185.12,-6 191.12,0 197.12,0 197.12,0 228.12,0 228.12,0 234.12,0 240.12,-6 240.12,-12 240.12,-12 240.12,-24 240.12,-24 240.12,-30 234.12,-36 228.12,-36"/>
<text text-anchor="middle" x="212.62" y="-14.88" font-family="sans" font-size="10.00">all_max</text>
</g>
<!-- 1 -->
<g id="node2" class="node">
<title>1</title>
<path fill="none" stroke="#d85656" stroke-width="2" d="M81.25,-108C81.25,-108 12,-108 12,-108 6,-108 0,-102 0,-96 0,-96 0,-84 0,-84 0,-78 6,-72 12,-72 12,-72 81.25,-72 81.25,-72 87.25,-72 93.25,-78 93.25,-84 93.25,-84 93.25,-96 93.25,-96 93.25,-102 87.25,-108 81.25,-108"/>
<text text-anchor="middle" x="46.62" y="-93.25" font-family="sans" font-size="10.00">max_contig</text>
<text text-anchor="middle" x="46.62" y="-80.5" font-family="sans" font-size="10.00">assem: toy_k19</text>
</g>
<!-- 1&#45;&gt;0 -->
<g id="edge1" class="edge">
<title>1&#45;&gt;0</title>
<path fill="none" stroke="grey" stroke-width="2" d="M88.94,-71.15C114.62,-60.33 147.19,-46.59 172.46,-35.94"/>
<polygon fill="grey" stroke="grey" stroke-width="2" points="173.58,-39.27 181.43,-32.15 170.86,-32.82 173.58,-39.27"/>
</g>
<!-- 2 -->
<g id="node3" class="node">
<title>2</title>
<path fill="none" stroke="#d85656" stroke-width="2" d="M192.25,-108C192.25,-108 123,-108 123,-108 117,-108 111,-102 111,-96 111,-96 111,-84 111,-84 111,-78 117,-72 123,-72 123,-72 192.25,-72 192.25,-72 198.25,-72 204.25,-78 204.25,-84 204.25,-84 204.25,-96 204.25,-96 204.25,-102 198.25,-108 192.25,-108"/>
<text text-anchor="middle" x="157.62" y="-93.25" font-family="sans" font-size="10.00">max_contig</text>
<text text-anchor="middle" x="157.62" y="-80.5" font-family="sans" font-size="10.00">assem: toy_k21</text>
</g>
<!-- 2&#45;&gt;0 -->
<g id="edge2" class="edge">
<title>2&#45;&gt;0</title>
<path fill="none" stroke="grey" stroke-width="2" d="M171.5,-71.34C177.32,-63.93 184.23,-55.14 190.7,-46.9"/>
<polygon fill="grey" stroke="grey" stroke-width="2" points="193.26,-49.31 196.69,-39.28 187.76,-44.98 193.26,-49.31"/>
</g>
<!-- 3 -->
<g id="node4" class="node">
<title>3</title>
<path fill="none" stroke="#d85656" stroke-width="2" d="M303.25,-108C303.25,-108 234,-108 234,-108 228,-108 222,-102 222,-96 222,-96 222,-84 222,-84 222,-78 228,-72 234,-72 234,-72 303.25,-72 303.25,-72 309.25,-72 315.25,-78 315.25,-84 315.25,-84 315.25,-96 315.25,-96 315.25,-102 309.25,-108 303.25,-108"/>
<text text-anchor="middle" x="268.62" y="-93.25" font-family="sans" font-size="10.00">max_contig</text>
<text text-anchor="middle" x="268.62" y="-80.5" font-family="sans" font-size="10.00">assem: toy_k25</text>
</g>
<!-- 3&#45;&gt;0 -->
<g id="edge3" class="edge">
<title>3&#45;&gt;0</title>
<path fill="none" stroke="grey" stroke-width="2" d="M254.49,-71.34C248.57,-63.93 241.54,-55.14 234.95,-46.9"/>
<polygon fill="grey" stroke="grey" stroke-width="2" points="237.82,-44.89 228.84,-39.27 232.35,-49.26 237.82,-44.89"/>
</g>
<!-- 4 -->
<g id="node5" class="node">
<title>4</title>
<path fill="none" stroke="#d85656" stroke-width="2" d="M414.25,-108C414.25,-108 345,-108 345,-108 339,-108 333,-102 333,-96 333,-96 333,-84 333,-84 333,-78 339,-72 345,-72 345,-72 414.25,-72 414.25,-72 420.25,-72 426.25,-78 426.25,-84 426.25,-84 426.25,-96 426.25,-96 426.25,-102 420.25,-108 414.25,-108"/>
<text text-anchor="middle" x="379.62" y="-93.25" font-family="sans" font-size="10.00">max_contig</text>
<text text-anchor="middle" x="379.62" y="-80.5" font-family="sans" font-size="10.00">assem: toy_k27</text>
</g>
<!-- 4&#45;&gt;0 -->
<g id="edge4" class="edge">
<title>4&#45;&gt;0</title>
<path fill="none" stroke="grey" stroke-width="2" d="M337.05,-71.15C311.14,-60.29 278.25,-46.51 252.79,-35.83"/>
<polygon fill="grey" stroke="grey" stroke-width="2" points="254.32,-32.68 243.74,-32.04 251.61,-39.14 254.32,-32.68"/>
</g>
<!-- 5 -->
<g id="node6" class="node">
<title>5</title>
<path fill="none" stroke="#88d856" stroke-width="2" d="M97.5,-190.25C97.5,-190.25 47.75,-190.25 47.75,-190.25 41.75,-190.25 35.75,-184.25 35.75,-178.25 35.75,-178.25 35.75,-156 35.75,-156 35.75,-150 41.75,-144 47.75,-144 47.75,-144 97.5,-144 97.5,-144 103.5,-144 109.5,-150 109.5,-156 109.5,-156 109.5,-178.25 109.5,-178.25 109.5,-184.25 103.5,-190.25 97.5,-190.25"/>
<text text-anchor="middle" x="72.62" y="-176.75" font-family="sans" font-size="10.00">assemble</text>
<text text-anchor="middle" x="72.62" y="-164" font-family="sans" font-size="10.00">kmer: 19</text>
<text text-anchor="middle" x="72.62" y="-151.25" font-family="sans" font-size="10.00">sample: toy</text>
</g>
<!-- 5&#45;&gt;1 -->
<g id="edge5" class="edge">
<title>5&#45;&gt;1</title>
<path fill="none" stroke="grey" stroke-width="2" d="M64.68,-143.18C62.26,-136.19 59.57,-128.4 57.01,-121.01"/>
<polygon fill="grey" stroke="grey" stroke-width="2" points="60.35,-119.97 53.78,-111.66 53.74,-122.26 60.35,-119.97"/>
</g>
<!-- 6 -->
<g id="node7" class="node">
<title>6</title>
<path fill="none" stroke="#88d856" stroke-width="2" d="M189.5,-190.25C189.5,-190.25 139.75,-190.25 139.75,-190.25 133.75,-190.25 127.75,-184.25 127.75,-178.25 127.75,-178.25 127.75,-156 127.75,-156 127.75,-150 133.75,-144 139.75,-144 139.75,-144 189.5,-144 189.5,-144 195.5,-144 201.5,-150 201.5,-156 201.5,-156 201.5,-178.25 201.5,-178.25 201.5,-184.25 195.5,-190.25 189.5,-190.25"/>
<text text-anchor="middle" x="164.62" y="-176.75" font-family="sans" font-size="10.00">assemble</text>
<text text-anchor="middle" x="164.62" y="-164" font-family="sans" font-size="10.00">kmer: 21</text>
<text text-anchor="middle" x="164.62" y="-151.25" font-family="sans" font-size="10.00">sample: toy</text>
</g>
<!-- 6&#45;&gt;2 -->
<g id="edge6" class="edge">
<title>6&#45;&gt;2</title>
<path fill="none" stroke="grey" stroke-width="2" d="M162.49,-143.18C161.85,-136.36 161.15,-128.78 160.47,-121.56"/>
<polygon fill="grey" stroke="grey" stroke-width="2" points="163.98,-121.45 159.56,-111.82 157.01,-122.1 163.98,-121.45"/>
</g>
<!-- 7 -->
<g id="node8" class="node">
<title>7</title>
<path fill="none" stroke="#88d856" stroke-width="2" d="M285.5,-190.25C285.5,-190.25 235.75,-190.25 235.75,-190.25 229.75,-190.25 223.75,-184.25 223.75,-178.25 223.75,-178.25 223.75,-156 223.75,-156 223.75,-150 229.75,-144 235.75,-144 235.75,-144 285.5,-144 285.5,-144 291.5,-144 297.5,-150 297.5,-156 297.5,-156 297.5,-178.25 297.5,-178.25 297.5,-184.25 291.5,-190.25 285.5,-190.25"/>
<text text-anchor="middle" x="260.62" y="-176.75" font-family="sans" font-size="10.00">assemble</text>
<text text-anchor="middle" x="260.62" y="-164" font-family="sans" font-size="10.00">kmer: 25</text>
<text text-anchor="middle" x="260.62" y="-151.25" font-family="sans" font-size="10.00">sample: toy</text>
</g>
<!-- 7&#45;&gt;3 -->
<g id="edge7" class="edge">
<title>7&#45;&gt;3</title>
<path fill="none" stroke="grey" stroke-width="2" d="M263.07,-143.18C263.79,-136.36 264.6,-128.78 265.37,-121.56"/>
<polygon fill="grey" stroke="grey" stroke-width="2" points="268.83,-122.13 266.41,-111.81 261.87,-121.39 268.83,-122.13"/>
</g>
<!-- 8 -->
<g id="node9" class="node">
<title>8</title>
<path fill="none" stroke="#88d856" stroke-width="2" d="M377.5,-190.25C377.5,-190.25 327.75,-190.25 327.75,-190.25 321.75,-190.25 315.75,-184.25 315.75,-178.25 315.75,-178.25 315.75,-156 315.75,-156 315.75,-150 321.75,-144 327.75,-144 327.75,-144 377.5,-144 377.5,-144 383.5,-144 389.5,-150 389.5,-156 389.5,-156 389.5,-178.25 389.5,-178.25 389.5,-184.25 383.5,-190.25 377.5,-190.25"/>
<text text-anchor="middle" x="352.62" y="-176.75" font-family="sans" font-size="10.00">assemble</text>
<text text-anchor="middle" x="352.62" y="-164" font-family="sans" font-size="10.00">kmer: 27</text>
<text text-anchor="middle" x="352.62" y="-151.25" font-family="sans" font-size="10.00">sample: toy</text>
</g>
<!-- 8&#45;&gt;4 -->
<g id="edge8" class="edge">
<title>8&#45;&gt;4</title>
<path fill="none" stroke="grey" stroke-width="2" d="M360.87,-143.18C363.38,-136.19 366.18,-128.4 368.84,-121.01"/>
<polygon fill="grey" stroke="grey" stroke-width="2" points="372.11,-122.25 372.2,-111.65 365.53,-119.88 372.11,-122.25"/>
</g>
<!-- 9 -->
<g id="node10" class="node">
<title>9</title>
<path fill="none" stroke="#56c1d8" stroke-width="2" d="M191,-272.5C191,-272.5 132.25,-272.5 132.25,-272.5 126.25,-272.5 120.25,-266.5 120.25,-260.5 120.25,-260.5 120.25,-238.25 120.25,-238.25 120.25,-232.25 126.25,-226.25 132.25,-226.25 132.25,-226.25 191,-226.25 191,-226.25 197,-226.25 203,-232.25 203,-238.25 203,-238.25 203,-260.5 203,-260.5 203,-266.5 197,-272.5 191,-272.5"/>
<text text-anchor="middle" x="161.62" y="-259" font-family="sans" font-size="10.00">concatenate</text>
<text text-anchor="middle" x="161.62" y="-246.25" font-family="sans" font-size="10.00">condition: toy</text>
<text text-anchor="middle" x="161.62" y="-233.5" font-family="sans" font-size="10.00">repnum: 1</text>
</g>
<!-- 9&#45;&gt;5 -->
<g id="edge9" class="edge">
<title>9&#45;&gt;5</title>
<path fill="none" stroke="grey" stroke-width="2" d="M136.36,-225.59C127.51,-217.61 117.4,-208.5 107.89,-199.92"/>
<polygon fill="grey" stroke="grey" stroke-width="2" points="110.28,-197.37 100.51,-193.27 105.59,-202.57 110.28,-197.37"/>
</g>
<!-- 9&#45;&gt;6 -->
<g id="edge11" class="edge">
<title>9&#45;&gt;6</title>
<path fill="none" stroke="grey" stroke-width="2" d="M162.48,-225.59C162.73,-218.87 163.01,-211.35 163.28,-204.02"/>
<polygon fill="grey" stroke="grey" stroke-width="2" points="166.77,-204.39 163.65,-194.27 159.78,-204.13 166.77,-204.39"/>
</g>
<!-- 9&#45;&gt;7 -->
<g id="edge13" class="edge">
<title>9&#45;&gt;7</title>
<path fill="none" stroke="grey" stroke-width="2" d="M189.99,-225.38C200.04,-217.24 211.51,-207.93 222.25,-199.23"/>
<polygon fill="grey" stroke="grey" stroke-width="2" points="224.34,-202.05 229.9,-193.03 219.93,-196.61 224.34,-202.05"/>
</g>
<!-- 9&#45;&gt;8 -->
<g id="edge15" class="edge">
<title>9&#45;&gt;8</title>
<path fill="none" stroke="grey" stroke-width="2" d="M203.87,-229.88C206.82,-228.64 209.77,-227.42 212.62,-226.25 250.48,-210.8 263.35,-208.31 302.92,-191.69"/>
<polygon fill="grey" stroke="grey" stroke-width="2" points="304.23,-194.94 312.05,-187.79 301.48,-188.5 304.23,-194.94"/>
</g>
<!-- 10 -->
<g id="node11" class="node">
<title>10</title>
<path fill="none" stroke="#56c1d8" stroke-width="2" d="M292,-272.5C292,-272.5 233.25,-272.5 233.25,-272.5 227.25,-272.5 221.25,-266.5 221.25,-260.5 221.25,-260.5 221.25,-238.25 221.25,-238.25 221.25,-232.25 227.25,-226.25 233.25,-226.25 233.25,-226.25 292,-226.25 292,-226.25 298,-226.25 304,-232.25 304,-238.25 304,-238.25 304,-260.5 304,-260.5 304,-266.5 298,-272.5 292,-272.5"/>
<text text-anchor="middle" x="262.62" y="-259" font-family="sans" font-size="10.00">concatenate</text>
<text text-anchor="middle" x="262.62" y="-246.25" font-family="sans" font-size="10.00">condition: toy</text>
<text text-anchor="middle" x="262.62" y="-233.5" font-family="sans" font-size="10.00">repnum: 2</text>
</g>
<!-- 10&#45;&gt;5 -->
<g id="edge10" class="edge">
<title>10&#45;&gt;5</title>
<path fill="none" stroke="grey" stroke-width="2" d="M220.38,-229.89C217.42,-228.65 214.48,-227.42 211.62,-226.25 174.14,-210.87 161.46,-208.25 122.23,-191.67"/>
<polygon fill="grey" stroke="grey" stroke-width="2" points="123.77,-188.52 113.2,-187.79 121.01,-194.95 123.77,-188.52"/>
</g>
<!-- 10&#45;&gt;6 -->
<g id="edge12" class="edge">
<title>10&#45;&gt;6</title>
<path fill="none" stroke="grey" stroke-width="2" d="M234.54,-225.38C224.6,-217.24 213.24,-207.93 202.61,-199.23"/>
<polygon fill="grey" stroke="grey" stroke-width="2" points="205.01,-196.67 195.05,-193.04 200.57,-202.09 205.01,-196.67"/>
</g>
<!-- 10&#45;&gt;7 -->
<g id="edge14" class="edge">
<title>10&#45;&gt;7</title>
<path fill="none" stroke="grey" stroke-width="2" d="M262.06,-225.59C261.89,-218.87 261.7,-211.35 261.52,-204.02"/>
<polygon fill="grey" stroke="grey" stroke-width="2" points="265.02,-204.18 261.28,-194.27 258.03,-204.35 265.02,-204.18"/>
</g>
<!-- 10&#45;&gt;8 -->
<g id="edge16" class="edge">
<title>10&#45;&gt;8</title>
<path fill="none" stroke="grey" stroke-width="2" d="M288.17,-225.59C297.22,-217.53 307.56,-208.31 317.27,-199.65"/>
<polygon fill="grey" stroke="grey" stroke-width="2" points="319.31,-202.52 324.44,-193.26 314.65,-197.3 319.31,-202.52"/>
</g>
<!-- 11 -->
<g id="node12" class="node">
<title>11</title>
<path fill="none" stroke="#d8bc56" stroke-width="2" d="M191.12,-344.5C191.12,-344.5 130.12,-344.5 130.12,-344.5 124.12,-344.5 118.12,-338.5 118.12,-332.5 118.12,-332.5 118.12,-320.5 118.12,-320.5 118.12,-314.5 124.12,-308.5 130.12,-308.5 130.12,-308.5 191.12,-308.5 191.12,-308.5 197.12,-308.5 203.12,-314.5 203.12,-320.5 203.12,-320.5 203.12,-332.5 203.12,-332.5 203.12,-338.5 197.12,-344.5 191.12,-344.5"/>
<text text-anchor="middle" x="160.62" y="-329.75" font-family="sans" font-size="10.00">cutadapt</text>
<text text-anchor="middle" x="160.62" y="-317" font-family="sans" font-size="10.00">sample: toy_1</text>
</g>
<!-- 11&#45;&gt;9 -->
<g id="edge17" class="edge">
<title>11&#45;&gt;9</title>
<path fill="none" stroke="grey" stroke-width="2" d="M160.86,-307.7C160.95,-301.3 161.05,-293.83 161.15,-286.43"/>
<polygon fill="grey" stroke="grey" stroke-width="2" points="164.64,-286.53 161.28,-276.49 157.64,-286.44 164.64,-286.53"/>
</g>
<!-- 11&#45;&gt;10 -->
<g id="edge19" class="edge">
<title>11&#45;&gt;10</title>
<path fill="none" stroke="grey" stroke-width="2" d="M185.06,-307.51C195.81,-299.58 208.76,-290.05 220.97,-281.06"/>
<polygon fill="grey" stroke="grey" stroke-width="2" points="223.02,-283.89 228.99,-275.15 218.87,-278.26 223.02,-283.89"/>
</g>
<!-- 12 -->
<g id="node13" class="node">
<title>12</title>
<path fill="none" stroke="#d8bc56" stroke-width="2" d="M294.12,-344.5C294.12,-344.5 233.12,-344.5 233.12,-344.5 227.12,-344.5 221.12,-338.5 221.12,-332.5 221.12,-332.5 221.12,-320.5 221.12,-320.5 221.12,-314.5 227.12,-308.5 233.12,-308.5 233.12,-308.5 294.12,-308.5 294.12,-308.5 300.12,-308.5 306.12,-314.5 306.12,-320.5 306.12,-320.5 306.12,-332.5 306.12,-332.5 306.12,-338.5 300.12,-344.5 294.12,-344.5"/>
<text text-anchor="middle" x="263.62" y="-329.75" font-family="sans" font-size="10.00">cutadapt</text>
<text text-anchor="middle" x="263.62" y="-317" font-family="sans" font-size="10.00">sample: toy_2</text>
</g>
<!-- 12&#45;&gt;9 -->
<g id="edge18" class="edge">
<title>12&#45;&gt;9</title>
<path fill="none" stroke="grey" stroke-width="2" d="M239.19,-307.51C228.44,-299.58 215.49,-290.05 203.28,-281.06"/>
<polygon fill="grey" stroke="grey" stroke-width="2" points="205.38,-278.26 195.26,-275.15 201.23,-283.89 205.38,-278.26"/>
</g>
<!-- 12&#45;&gt;10 -->
<g id="edge20" class="edge">
<title>12&#45;&gt;10</title>
<path fill="none" stroke="grey" stroke-width="2" d="M263.39,-307.7C263.3,-301.3 263.2,-293.83 263.1,-286.43"/>
<polygon fill="grey" stroke="grey" stroke-width="2" points="266.61,-286.44 262.97,-276.49 259.61,-286.53 266.61,-286.44"/>
</g>
</g>
</svg>
